<?xml version="1.0" encoding="UTF-8"?>
<svg version="1.1" xmlns="http://www.w3.org/2000/svg" width="128" height="128">
<path d="M0 0 C2.7127455 4.06911826 2.77072744 7.21849673 2 12 C0.61516743 15.19910799 -1.07778513 18.09608253 -3 21 C-2.39671875 20.67257813 -1.7934375 20.34515625 -1.171875 20.0078125 C1.37547299 18.82576973 3.22412038 18.84578447 6 19 C6 18.34 6 17.68 6 17 C7.65 17.33 9.3 17.66 11 18 C10.3125 20.4375 10.3125 20.4375 9 23 C6.375 23.8125 6.375 23.8125 4 24 C3.505 25.485 3.505 25.485 3 27 C1 27.625 1 27.625 -1 28 C-2.30408759 29.09069279 -2.30408759 29.09069279 -2.25 31.75 C-2.2422407 35.0186339 -2.2422407 35.0186339 -0.5 37.5 C1.36272076 40.60453461 1.37960816 42.43168326 1 46 C0 48.375 0 48.375 -1 50 C0.03406673 51.25949049 0.03406673 51.25949049 2.28515625 51.09765625 C3.20167969 51.08605469 4.11820313 51.07445312 5.0625 51.0625 C5.98160156 51.05347656 6.90070313 51.04445312 7.84765625 51.03515625 C8.55792969 51.02355469 9.26820312 51.01195312 10 51 C9.67 52.32 9.34 53.64 9 55 C-0.99114703 56.23244089 -10.95234046 57.33598076 -21 58 C-20.21238281 57.98839844 -19.42476562 57.97679687 -18.61328125 57.96484375 C-10.68892613 57.8991982 -2.89033243 58.27682714 5 59 C5.495 61.475 5.495 61.475 6 64 C-4.7692597 66.89941607 -16.04271486 66.77647295 -27 65 C-28.125 61.25 -28.125 61.25 -27 59 C-29.31 58.34 -31.62 57.68 -34 57 C-34 54.69 -34 52.38 -34 50 C-30.83754459 48.9458482 -28.13051782 48.68724328 -24.8125 48.4375 C-23.72582031 48.35371094 -22.63914062 48.26992188 -21.51953125 48.18359375 C-20.68808594 48.12300781 -19.85664062 48.06242187 -19 48 C-19 48.66 -19 49.32 -19 50 C-16.36 50 -13.72 50 -11 50 C-12.43024761 46.79452042 -14.20433073 44.4645554 -16.5625 41.875 C-19.15945523 39.01349008 -20.76526133 37.23237799 -21.5 33.375 C-20.84119092 28.92803872 -18.80185216 27.08091024 -15.7265625 23.9296875 C-13.91824453 22.08024618 -13.91824453 22.08024618 -12.90234375 19.79296875 C-12.60457031 19.20128906 -12.30679688 18.60960938 -12 18 C-10.67405895 17.63837971 -9.34061543 17.30271961 -8 17 C-7.67 16.01 -7.34 15.02 -7 14 C-5.68352881 13.30062468 -4.34977849 12.63270867 -3 12 C-1.55318676 9.10637351 -1.56757624 6.1916991 -1.28125 2.99609375 C-1 1 -1 1 0 0 Z M-10 25 C-13.03392916 28.10977738 -14.765216 29.91145599 -15.6875 34.1875 C-14.67704034 39.79095813 -11.89885392 44.15787004 -9 49 C-8.67 49.66 -8.34 50.32 -8 51 C-7.01 50.67 -6.02 50.34 -5 50 C-4.09782291 46.99452247 -3.76775893 45.52147903 -5.06640625 42.60546875 C-5.56011719 41.80753906 -6.05382812 41.00960937 -6.5625 40.1875 C-8.56709112 36.51425199 -9.38961155 34.47239055 -8.3125 30.375 C-7.879375 29.26125 -7.44625 28.1475 -7 27 C-7.99 26.34 -8.98 25.68 -10 25 Z M-24 51 C-24.33 51.66 -24.66 52.32 -25 53 C-16.75 53 -8.5 53 0 53 C-3.74450732 51.12774634 -4.85027191 50.75449067 -8.765625 50.8046875 C-10.09980469 50.81435547 -10.09980469 50.81435547 -11.4609375 50.82421875 C-12.38132812 50.84097656 -13.30171875 50.85773437 -14.25 50.875 C-15.65378906 50.88853516 -15.65378906 50.88853516 -17.0859375 50.90234375 C-19.39088657 50.92586364 -21.6953116 50.95873147 -24 51 Z M-31 56 C-31 56.33 -31 56.66 -31 57 C-29.02 57 -27.04 57 -25 57 C-25 56.67 -25 56.34 -25 56 C-26.98 56 -28.96 56 -31 56 Z M-23 59 C-22 61 -22 61 -22 61 Z M-21 60 C-21 60.33 -21 60.66 -21 61 C-14.09811029 61.83854735 -7.88577812 62.01593448 -1 61 C-1 60.67 -1 60.34 -1 60 C-11.03582771 58.9620401 -11.03582771 58.9620401 -21 60 Z " fill="#E82D2F" transform="translate(73,0)"/>
<path d="M0 0 C0.66 0.66 1.32 1.32 2 2 C2.66 2.33 3.32 2.66 4 3 C4 3.66 4 4.32 4 5 C4.99 5.495 4.99 5.495 6 6 C5.36995587 8.94020596 4.66297826 11.47703922 3 14 C0.86328125 14.57421875 0.86328125 14.57421875 -1.6875 14.6875 C-4.56242624 14.84398899 -7.31311501 15.05031514 -10.16015625 15.5078125 C-22.06657263 17.03396557 -35.36921415 17.11538907 -47 14 C-48.0209375 13.73574219 -49.041875 13.47148438 -50.09375 13.19921875 C-52.73843116 12.49463829 -55.37156982 11.76260063 -58 11 C-58.33 8.69 -58.66 6.38 -59 4 C-55.72698081 1.03090402 -53.61934238 0.65645206 -49.25 0.8125 C-48.26515625 0.83957031 -47.2803125 0.86664063 -46.265625 0.89453125 C-45.51796875 0.92933594 -44.7703125 0.96414062 -44 1 C-44 2.98 -44 4.96 -44 7 C-39.71330142 7.02487594 -35.42664205 7.04294275 -31.13989258 7.05493164 C-29.68415596 7.05993417 -28.22842429 7.0667383 -26.77270508 7.07543945 C-24.67007212 7.087685 -22.56750609 7.09326923 -20.46484375 7.09765625 C-19.202771 7.10289307 -17.94069824 7.10812988 -16.64038086 7.11352539 C-13.02328018 7.00072599 -9.56920449 6.58112682 -6 6 C-6 5.34 -6 4.68 -6 4 C-5.195625 3.71125 -4.39125 3.4225 -3.5625 3.125 C-0.8673532 2.26737432 -0.8673532 2.26737432 0 0 Z M-1 3 C0 5 0 5 0 5 Z M-3 8 C-2.67 8.66 -2.34 9.32 -2 10 C-1.34 9.67 -0.68 9.34 0 9 C-0.99 8.67 -1.98 8.34 -3 8 Z M-55 10 C-55 10.33 -55 10.66 -55 11 C-53.35 11 -51.7 11 -50 11 C-50 10.67 -50 10.34 -50 10 C-51.65 10 -53.3 10 -55 10 Z M-12.69921875 9.9921875 C-20.42036835 11.20776207 -28.01633755 11.22515673 -35.8125 11.125 C-37.19856112 11.11493373 -38.58462946 11.10581442 -39.97070312 11.09765625 C-43.31399273 11.07435806 -46.65689731 11.04164862 -50 11 C-50 11.33 -50 11.66 -50 12 C-42.87890886 13.12992939 -35.94535871 13.18386231 -28.75 13.1875 C-26.86087891 13.20586914 -26.86087891 13.20586914 -24.93359375 13.22460938 C-17.39517048 13.23635147 -10.3552711 12.6790033 -3 11 C-3.495 10.01 -3.495 10.01 -4 9 C-7.05100238 9 -9.69808438 9.45413084 -12.69921875 9.9921875 Z " fill="#0073BD" transform="translate(90,72)"/>
<path d="M0 0 C0 0.66 0 1.32 0 2 C3.96 2 7.92 2 12 2 C12.33 2.66 12.66 3.32 13 4 C18.39115154 4.14187241 23.65097076 3.59198743 29 3 C28.67 4.32 28.34 5.64 28 7 C18.00885297 8.23244089 8.04765954 9.33598076 -2 10 C-1.21238281 9.98839844 -0.42476562 9.97679687 0.38671875 9.96484375 C8.31107387 9.8991982 16.10966757 10.27682714 24 11 C24.495 13.475 24.495 13.475 25 16 C14.2307403 18.89941607 2.95728514 18.77647295 -8 17 C-9.125 13.25 -9.125 13.25 -8 11 C-10.31 10.34 -12.62 9.68 -15 9 C-15 6.69 -15 4.38 -15 2 C-10.09063502 0.36354501 -5.16220269 -0.15643038 0 0 Z M-12 8 C-12 8.33 -12 8.66 -12 9 C-10.02 9 -8.04 9 -6 9 C-6 8.67 -6 8.34 -6 8 C-7.98 8 -9.96 8 -12 8 Z M-4 11 C-3 13 -3 13 -3 13 Z M-2 12 C-2 12.33 -2 12.66 -2 13 C4.90188971 13.83854735 11.11422188 14.01593448 18 13 C18 12.67 18 12.34 18 12 C7.96417229 10.9620401 7.96417229 10.9620401 -2 12 Z " fill="#0073BC" transform="translate(54,48)"/>
<path d="M0 0 C1.45823212 -0.0270043 2.91660675 -0.04639787 4.375 -0.0625 C5.18710938 -0.07410156 5.99921875 -0.08570312 6.8359375 -0.09765625 C9 0 9 0 11 1 C13.1390695 5.8615216 13.24710234 10.18095432 13.125 15.375 C13.11597656 16.11105469 13.10695313 16.84710938 13.09765625 17.60546875 C13.07430144 19.4037888 13.03843836 21.20193911 13 23 C7.92523206 24.26305335 3.27203646 25.27036084 -2 25 C-4.59868201 20.26122692 -3.94860165 16.11669979 -3 11 C-2.67 10.01 -2.34 9.02 -2 8 C-2.87914688 5.3430809 -2.87914688 5.3430809 -4 3 C-2.68 2.34 -1.36 1.68 0 1 C0 0.67 0 0.34 0 0 Z M6 7 C7 10 7 10 7 10 Z M6 14 C7 18 7 18 7 18 Z M1 15 C1.33 15.99 1.66 16.98 2 18 C2.33 17.01 2.66 16.02 3 15 C2.34 15 1.68 15 1 15 Z " fill="#EA2D2E" transform="translate(82,97)"/>
<path d="M0 0 C1.17949219 0.01804687 2.35898437 0.03609375 3.57421875 0.0546875 C4.92966797 0.08949219 4.92966797 0.08949219 6.3125 0.125 C8.66832065 4.75316733 8.54771469 8.88034135 8.4375 13.9375 C8.42847656 14.72576172 8.41945313 15.51402344 8.41015625 16.32617188 C8.38672504 18.25924666 8.35085838 20.1921638 8.3125 22.125 C2.93953159 22.79103003 -2.27059294 23.24025334 -7.6875 23.125 C-9.20458428 13.71497722 -9.20458428 13.71497722 -6.6875 9.125 C-5.0375 9.125 -3.3875 9.125 -1.6875 9.125 C-4.2529594 6.5595406 -6.16436668 6.58453913 -9.6875 6.125 C-9.6875 4.805 -9.6875 3.485 -9.6875 2.125 C-6.05554504 -0.29630331 -4.30400652 -0.08522785 0 0 Z M-8.6875 3.125 C-7.6875 5.125 -7.6875 5.125 -7.6875 5.125 Z M2.3125 13.125 C3.3125 17.125 3.3125 17.125 3.3125 17.125 Z M-3.6875 15.125 C-2.6875 17.125 -2.6875 17.125 -2.6875 17.125 Z " fill="#E92D2E" transform="translate(49.6875,97.875)"/>
<path d="M0 0 C1.98 0 3.96 0 6 0 C7.32 3.96 8.64 7.92 10 12 C10.99 8.04 11.98 4.08 13 0 C14.65 0 16.3 0 18 0 C17.52309194 7.27284786 15.65898515 13.24174607 13 20 C12.67 20.99 12.34 21.98 12 23 C10.02 23 8.04 23 6 23 C4.99325541 19.73120384 3.99577511 16.4596529 3 13.1875 C2.71382812 12.25873047 2.42765625 11.32996094 2.1328125 10.37304688 C1.86210938 9.48037109 1.59140625 8.58769531 1.3125 7.66796875 C1.06113281 6.84578857 0.80976562 6.0236084 0.55078125 5.17651367 C0 3 0 3 0 0 Z " fill="#EA2D2D" transform="translate(59,99)"/>
<path d="M0 0 C0.7429834 0.14904785 1.4859668 0.2980957 2.25146484 0.45166016 C5.01022696 1.0020403 7.18384521 0.99506461 9.9765625 0.7734375 C10.894375 0.7115625 11.8121875 0.6496875 12.7578125 0.5859375 C14.67762644 0.44469778 16.59691919 0.29619574 18.515625 0.140625 C19.43085937 0.08132812 20.34609375 0.02203125 21.2890625 -0.0390625 C22.12131348 -0.10303223 22.95356445 -0.16700195 23.81103516 -0.23291016 C26 0 26 0 27.79443359 1.25244141 C29 3 29 3 29 7 C20.79359409 12.47093728 9.31518581 10.00899498 0 9 C-0.87890625 2.84765625 -0.87890625 2.84765625 -1 1 C-0.67 0.67 -0.34 0.34 0 0 Z M5 3 C5 3.33 5 3.66 5 4 C10.28 4 15.56 4 21 4 C21 3.67 21 3.34 21 3 C15.72 3 10.44 3 5 3 Z " fill="#0074BC" transform="translate(49,66)"/>
<path d="M0 0 C1.65 0 3.3 0 5 0 C5.07453622 4.1625612 5.12878254 8.3247618 5.16479492 12.48779297 C5.17981825 13.90192437 5.20024305 15.31600968 5.22631836 16.72998047 C5.26298954 18.77062397 5.27979036 20.81064792 5.29296875 22.8515625 C5.31653442 24.68968506 5.31653442 24.68968506 5.34057617 26.56494141 C4.96744873 30.32831277 3.88550194 32.75093438 2 36 C0.02 36 -1.96 36 -4 36 C-4 33.69 -4 31.38 -4 29 C-3.01 28.67 -2.02 28.34 -1 28 C-0.67 18.76 -0.34 9.52 0 0 Z " fill="#E92C2D" transform="translate(34,92)"/>
<path d="M0 0 C2.63313346 4.04279077 2.83276532 8.32964604 2 13 C-1.18543184 16.74756687 -4.18885231 17.55245138 -9 18 C-9 18.66 -9 19.32 -9 20 C-9.99 20 -10.98 20 -12 20 C-13 17 -13 17 -12 14 C-10.01276732 13.29618843 -8.01222047 12.6288189 -6 12 C-4.768606 9.53721199 -4.92840804 7.7204945 -5 5 C-6.65 5 -8.3 5 -10 5 C-10.33 4.01 -10.66 3.02 -11 2 C-7.06425135 -0.62383243 -4.54354105 -1.51451368 0 0 Z M-4 4 C-4 5.98 -4 7.96 -4 10 C-3.67 10 -3.34 10 -3 10 C-3 8.02 -3 6.04 -3 4 C-3.33 4 -3.66 4 -4 4 Z " fill="#0074BD" transform="translate(94,47)"/>
<path d="M0 0 C1.32 0.33 2.64 0.66 4 1 C3.67 8.26 3.34 15.52 3 23 C2.67 23 2.34 23 2 23 C1.93941406 21.92621094 1.87882812 20.85242188 1.81640625 19.74609375 C1.73192349 18.30988685 1.64727946 16.87368942 1.5625 15.4375 C1.52318359 14.73302734 1.48386719 14.02855469 1.44335938 13.30273438 C1.17481721 8.8201459 0.69383803 4.43706503 0 0 Z " fill="#EA2D2D" transform="translate(94,97)"/>
<path d="M0 0 C0 0.33 0 0.66 0 1 C-9.9 1 -19.8 1 -30 1 C-30 0.67 -30 0.34 -30 0 C-19.82382142 -1.03351814 -10.16437295 -0.85803148 0 0 Z " fill="#0074BD" transform="translate(76,78)"/>
<path d="M0 0 C0.33 0 0.66 0 1 0 C1 9.24 1 18.48 1 28 C0.67 28 0.34 28 0 28 C0 18.76 0 9.52 0 0 Z " fill="#EA2D2E" transform="translate(32,92)"/>
<path d="M0 0 C7.59 0 15.18 0 23 0 C23 0.33 23 0.66 23 1 C15.41 1 7.82 1 0 1 C0 0.67 0 0.34 0 0 Z " fill="#0074BD" transform="translate(53,89)"/>
<path d="M0 0 C2.42945561 3.64418341 2.0828781 4.92923364 1.625 9.1875 C1.51414063 10.27417969 1.40328125 11.36085938 1.2890625 12.48046875 C1.14597656 13.72763672 1.14597656 13.72763672 1 15 C0.67 15 0.34 15 0 15 C0 10.05 0 5.1 0 0 Z " fill="#EA2D2E" transform="translate(59,105)"/>
<path d="M0 0 C1.61949011 2.57213134 2.04408751 3.67669159 1.625 6.75 C1.41875 7.4925 1.2125 8.235 1 9 C-1 6 -1 6 -0.625 2.8125 C-0.41875 1.884375 -0.2125 0.95625 0 0 Z " fill="#EA2C2D" transform="translate(76,108)"/>
<path d="M0 0 C6.0546875 -0.1953125 6.0546875 -0.1953125 8 0 C8.66 0.66 9.32 1.32 10 2 C6.7 1.67 3.4 1.34 0 1 C0 0.67 0 0.34 0 0 Z " fill="#0074BD" transform="translate(66,57)"/>
<path d="M0 0 C0.33 0 0.66 0 1 0 C1 2.97 1 5.94 1 9 C0.67 9 0.34 9 0 9 C0 6.03 0 3.06 0 0 Z " fill="#EA2D2E" transform="translate(76,3)"/>
<path d="M0 0 C0.33 0 0.66 0 1 0 C1 2.97 1 5.94 1 9 C0.67 9 0.34 9 0 9 C0 6.03 0 3.06 0 0 Z " fill="#EA2D2E" transform="translate(70,1)"/>
<path d="M0 0 C0.33 0 0.66 0 1 0 C0.67 2.31 0.34 4.62 0 7 C-1.04449911 3.86650268 -0.93423645 3.01031744 0 0 Z " fill="#EA2D2E" transform="translate(69,102)"/>
<path d="M0 0 C2.64 0 5.28 0 8 0 C8 0.33 8 0.66 8 1 C5.36 1 2.72 1 0 1 C0 0.67 0 0.34 0 0 Z " fill="#EA2D2E" transform="translate(46,97)"/>
<path d="M0 0 C2.64 0 5.28 0 8 0 C8 0.33 8 0.66 8 1 C5.36 1 2.72 1 0 1 C0 0.67 0 0.34 0 0 Z " fill="#0074BD" transform="translate(76,77)"/>
<path d="M0 0 C2.31 0 4.62 0 7 0 C7 0.33 7 0.66 7 1 C4.69 1 2.38 1 0 1 C0 0.67 0 0.34 0 0 Z " fill="#0074BD" transform="translate(76,88)"/>
<path d="M0 0 C2.31 0 4.62 0 7 0 C7 0.33 7 0.66 7 1 C4.69 1 2.38 1 0 1 C0 0.67 0 0.34 0 0 Z " fill="#0173BC" transform="translate(73,50)"/>
<path d="M0 0 C0.33 0 0.66 0 1 0 C1 2.31 1 4.62 1 7 C0.67 7 0.34 7 0 7 C0 4.69 0 2.38 0 0 Z " fill="#EA2D2E" transform="translate(59,31)"/>
<path d="M0 0 C0.99 1.485 0.99 1.485 2 3 C1.34 3.66 0.68 4.32 0 5 C0 3.35 0 1.7 0 0 Z " fill="#EA2D2E" transform="translate(40,117)"/>
<path d="M0 0 C2.475 0.495 2.475 0.495 5 1 C4.01 1.33 3.02 1.66 2 2 C1.34 1.34 0.68 0.68 0 0 Z " fill="#EA2D2E" transform="translate(43,105)"/>
<path d="M0 0 C1.98 0 3.96 0 6 0 C6 0.33 6 0.66 6 1 C4.02 1 2.04 1 0 1 C0 0.67 0 0.34 0 0 Z " fill="#0074BD" transform="translate(47,88)"/>
<path d="M0 0 C1.98 0 3.96 0 6 0 C6 0.33 6 0.66 6 1 C4.02 1 2.04 1 0 1 C0 0.67 0 0.34 0 0 Z " fill="#0074BD" transform="translate(65,76)"/>
<path d="M0 0 C1.98 0 3.96 0 6 0 C6 0.33 6 0.66 6 1 C4.02 1 2.04 1 0 1 C0 0.67 0 0.34 0 0 Z " fill="#0074BD" transform="translate(53,76)"/>
<path d="M0 0 C0.33 0 0.66 0 1 0 C1 1.98 1 3.96 1 6 C0.67 6 0.34 6 0 6 C0 4.02 0 2.04 0 0 Z " fill="#0074BD" transform="translate(97,51)"/>
<path d="M0 0 C0.33 0 0.66 0 1 0 C1 1.98 1 3.96 1 6 C0.67 6 0.34 6 0 6 C0 4.02 0 2.04 0 0 Z " fill="#EA2D2E" transform="translate(75,40)"/>
<path d="M0 0 C0.33 0 0.66 0 1 0 C1 1.98 1 3.96 1 6 C0.67 6 0.34 6 0 6 C0 4.02 0 2.04 0 0 Z " fill="#EA2D2E" transform="translate(50,30)"/>
<path d="M0 0 C0.33 0 0.66 0 1 0 C1 1.98 1 3.96 1 6 C0.67 6 0.34 6 0 6 C0 4.02 0 2.04 0 0 Z " fill="#EA2D2E" transform="translate(71,29)"/>
<path d="M0 0 C1.65 0 3.3 0 5 0 C5 0.33 5 0.66 5 1 C3.35 1 1.7 1 0 1 C0 0.67 0 0.34 0 0 Z " fill="#EA2D2E" transform="translate(72,97)"/>
<path d="M0 0 C1.65 0 3.3 0 5 0 C5 0.33 5 0.66 5 1 C3.35 1 1.7 1 0 1 C0 0.67 0 0.34 0 0 Z " fill="#EA2D2E" transform="translate(59,97)"/>
<path d="M0 0 C1.65 0 3.3 0 5 0 C5 0.33 5 0.66 5 1 C3.35 1 1.7 1 0 1 C0 0.67 0 0.34 0 0 Z " fill="#EA2D2E" transform="translate(34,90)"/>
<path d="M0 0 C1.65 0 3.3 0 5 0 C5 0.33 5 0.66 5 1 C3.35 1 1.7 1 0 1 C0 0.67 0 0.34 0 0 Z " fill="#0074BC" transform="translate(83,87)"/>
<path d="M0 0 C1.65 0 3.3 0 5 0 C5 0.33 5 0.66 5 1 C3.35 1 1.7 1 0 1 C0 0.67 0 0.34 0 0 Z " fill="#0074BD" transform="translate(49,46)"/>
<path d="M0 0 C1.65 0 3.3 0 5 0 C5 0.33 5 0.66 5 1 C3.35 1 1.7 1 0 1 C0 0.67 0 0.34 0 0 Z " fill="#0073BD" transform="translate(86,45)"/>
<path d="M0 0 C4 1 4 1 4 1 Z " fill="#EA2D2E" transform="translate(90,121)"/>
<path d="M0 0 C4 1 4 1 4 1 Z " fill="#EA2D2E" transform="translate(54,121)"/>
<path d="M0 0 C1 4 1 4 1 4 Z " fill="#0074BD" transform="translate(30,77)"/>
<path d="M0 0 C4 1 4 1 4 1 Z " fill="#0074BD" transform="translate(38,72)"/>
<path d="M0 0 C4 1 4 1 4 1 Z " fill="#0074BD" transform="translate(75,65)"/>
<path d="M0 0 C4 1 4 1 4 1 Z " fill="#0074BD" transform="translate(74,56)"/>
<path d="M0 0 C4 1 4 1 4 1 Z " fill="#0073BD" transform="translate(45,47)"/>
<path d="M0 0 C0.66 0.33 1.32 0.66 2 1 C1.01 1 0.02 1 -1 1 C-0.67 0.67 -0.34 0.34 0 0 Z " fill="#EA2D2E" transform="translate(78,23)"/>
<path d="M0 0 C3 1 3 1 3 1 Z " fill="#EA2D2E" transform="translate(83,122)"/>
<path d="M0 0 C3 1 3 1 3 1 Z " fill="#EA2D2E" transform="translate(46,122)"/>
<path d="M0 0 C3 1 3 1 3 1 Z " fill="#EA2D2E" transform="translate(49,121)"/>
<path d="" fill="#EA2D2E" transform="translate(0,0)"/>
<path d="" fill="#EA2D2E" transform="translate(0,0)"/>
<path d="" fill="#EA2D2E" transform="translate(0,0)"/>
<path d="" fill="#E92D2D" transform="translate(0,0)"/>
<path d="" fill="#EA2D2D" transform="translate(0,0)"/>
<path d="M0 0 C3 1 3 1 3 1 Z " fill="#0074BD" transform="translate(88,86)"/>
<path d="M0 0 C3 1 3 1 3 1 Z " fill="#0074BD" transform="translate(42,71)"/>
<path d="" fill="#0074BD" transform="translate(0,0)"/>
<path d="M0 0 C3 1 3 1 3 1 Z " fill="#0074BD" transform="translate(42,48)"/>
<path d="" fill="#EA2D2E" transform="translate(0,0)"/>
<path d="" fill="#E92C2E" transform="translate(0,0)"/>
<path d="" fill="#EA2D2D" transform="translate(0,0)"/>
<path d="" fill="#EA2D2E" transform="translate(0,0)"/>
<path d="" fill="#EA2D2E" transform="translate(0,0)"/>
<path d="M0 0 C2 1 2 1 2 1 Z " fill="#EA2D2E" transform="translate(44,121)"/>
<path d="" fill="#EA2D2E" transform="translate(0,0)"/>
<path d="" fill="#EA2D2E" transform="translate(0,0)"/>
<path d="" fill="#EA2D2E" transform="translate(0,0)"/>
<path d="" fill="#EA2D2F" transform="translate(0,0)"/>
<path d="" fill="#EA2D2E" transform="translate(0,0)"/>
<path d="M0 0 C2 1 2 1 2 1 Z " fill="#EA2D2E" transform="translate(80,98)"/>
<path d="M0 0 C2 1 2 1 2 1 Z " fill="#0074BD" transform="translate(44,87)"/>
<path d="" fill="#0074BD" transform="translate(0,0)"/>
<path d="M0 0 C2 1 2 1 2 1 Z " fill="#0074BD" transform="translate(51,75)"/>
<path d="M0 0 C2 1 2 1 2 1 Z " fill="#0074BD" transform="translate(75,74)"/>
<path d="" fill="#0074BD" transform="translate(0,0)"/>
<path d="M0 0 C2 1 2 1 2 1 Z " fill="#0074BD" transform="translate(85,65)"/>
<path d="M0 0 C2 1 2 1 2 1 Z " fill="#0074BD" transform="translate(47,65)"/>
<path d="M0 0 C2 1 2 1 2 1 Z " fill="#0074BD" transform="translate(87,64)"/>
<path d="" fill="#0073BD" transform="translate(0,0)"/>
<path d="M0 0 C2 1 2 1 2 1 Z " fill="#0074BF" transform="translate(60,60)"/>
<path d="M0 0 C2 1 2 1 2 1 Z " fill="#0074BD" transform="translate(78,55)"/>
<path d="M0 0 C2 1 2 1 2 1 Z " fill="#0074BD" transform="translate(80,49)"/>
<path d="" fill="#E92D2E" transform="translate(0,0)"/>
<path d="" fill="#EA2D2E" transform="translate(0,0)"/>
<path d="" fill="#EA2D2E" transform="translate(0,0)"/>
<path d="M0 0 C2 1 2 1 2 1 Z " fill="#0074BD" transform="translate(84,46)"/>
<path d="" fill="#EA2D2E" transform="translate(0,0)"/>
<path d="" fill="#EA2D2E" transform="translate(0,0)"/>
<path d="" fill="#EA2D2E" transform="translate(0,0)"/>
<path d="" fill="#EA2D2D" transform="translate(0,0)"/>
<path d="" fill="#EA2D2E" transform="translate(0,0)"/>
<path d="" fill="#EA2D2E" transform="translate(0,0)"/>
<path d="" fill="#EA2D2E" transform="translate(0,0)"/>
<path d="" fill="#EA2D2E" transform="translate(0,0)"/>
<path d="" fill="#E92D2E" transform="translate(0,0)"/>
<path d="" fill="#EA2C2D" transform="translate(0,0)"/>
<path d="" fill="#EA2D2E" transform="translate(0,0)"/>
<path d="" fill="#EA2D2E" transform="translate(0,0)"/>
<path d="M0 0 C2 1 2 1 2 1 Z " fill="#EA2D2E" transform="translate(77,18)"/>
<path d="" fill="#EA2C2E" transform="translate(0,0)"/>
<path d="" fill="#EA2C2E" transform="translate(0,0)"/>
<path d="" fill="#EA2D2E" transform="translate(0,0)"/>
<path d="" fill="#EA2D2E" transform="translate(0,0)"/>
<path d="" fill="#EA2D2E" transform="translate(0,0)"/>
<path d="" fill="#EA2D2E" transform="translate(0,0)"/>
<path d="" fill="#EA2D2E" transform="translate(0,0)"/>
<path d="" fill="#EA2C2D" transform="translate(0,0)"/>
<path d="" fill="#EA2D2E" transform="translate(0,0)"/>
<path d="" fill="#EA2D2E" transform="translate(0,0)"/>
<path d="" fill="#EA2D2E" transform="translate(0,0)"/>
<path d="" fill="#EA2D2E" transform="translate(0,0)"/>
<path d="" fill="#EA2D2E" transform="translate(0,0)"/>
<path d="" fill="#EB2B2E" transform="translate(0,0)"/>
<path d="" fill="#EA2D2E" transform="translate(0,0)"/>
<path d="" fill="#0074BD" transform="translate(0,0)"/>
<path d="" fill="#0074BD" transform="translate(0,0)"/>
<path d="" fill="#0074BD" transform="translate(0,0)"/>
<path d="" fill="#0075BC" transform="translate(0,0)"/>
<path d="" fill="#0074BD" transform="translate(0,0)"/>
<path d="" fill="#0074BD" transform="translate(0,0)"/>
<path d="" fill="#0074BD" transform="translate(0,0)"/>
<path d="" fill="#0076BD" transform="translate(0,0)"/>
<path d="" fill="#0074BD" transform="translate(0,0)"/>
<path d="" fill="#0074BD" transform="translate(0,0)"/>
<path d="" fill="#0075BE" transform="translate(0,0)"/>
<path d="" fill="#0074BD" transform="translate(0,0)"/>
<path d="" fill="#0075BE" transform="translate(0,0)"/>
<path d="" fill="#0074BD" transform="translate(0,0)"/>
<path d="" fill="#0074BD" transform="translate(0,0)"/>
<path d="" fill="#0074BD" transform="translate(0,0)"/>
<path d="" fill="#0074BD" transform="translate(0,0)"/>
<path d="" fill="#0074BD" transform="translate(0,0)"/>
<path d="" fill="#0074BE" transform="translate(0,0)"/>
<path d="" fill="#0074BD" transform="translate(0,0)"/>
<path d="" fill="#0074BD" transform="translate(0,0)"/>
<path d="" fill="#EA2D2E" transform="translate(0,0)"/>
<path d="" fill="#0074BD" transform="translate(0,0)"/>
<path d="" fill="#0074BD" transform="translate(0,0)"/>
<path d="" fill="#EA2D2E" transform="translate(0,0)"/>
<path d="" fill="#EA2D2E" transform="translate(0,0)"/>
<path d="" fill="#EA2D2E" transform="translate(0,0)"/>
<path d="" fill="#EA2D2E" transform="translate(0,0)"/>
<path d="" fill="#EA2D2E" transform="translate(0,0)"/>
<path d="" fill="#EA2D2E" transform="translate(0,0)"/>
<path d="" fill="#EA2D2E" transform="translate(0,0)"/>
<path d="" fill="#EA2D2E" transform="translate(0,0)"/>
<path d="" fill="#EA2D2E" transform="translate(0,0)"/>
<path d="" fill="#EA2D2E" transform="translate(0,0)"/>
<path d="" fill="#EA2D2E" transform="translate(0,0)"/>
<path d="" fill="#EA2D2E" transform="translate(0,0)"/>
<path d="" fill="#EA2D2E" transform="translate(0,0)"/>
<path d="" fill="#EA2D2E" transform="translate(0,0)"/>
<path d="" fill="#EA2D2E" transform="translate(0,0)"/>
<path d="" fill="#EA2D2E" transform="translate(0,0)"/>
<path d="" fill="#EA2D2E" transform="translate(0,0)"/>
<path d="" fill="#EA2D2E" transform="translate(0,0)"/>
<path d="" fill="#EA2D2E" transform="translate(0,0)"/>
<path d="" fill="#EA2D2E" transform="translate(0,0)"/>
<path d="" fill="#EA2D2E" transform="translate(0,0)"/>
<path d="" fill="#EA2D2E" transform="translate(0,0)"/>
<path d="" fill="#EA2D2E" transform="translate(0,0)"/>
<path d="" fill="#EA2D2E" transform="translate(0,0)"/>
<path d="" fill="#EA2D2E" transform="translate(0,0)"/>
<path d="" fill="#EA2D2E" transform="translate(0,0)"/>
<path d="" fill="#EA2D2E" transform="translate(0,0)"/>
<path d="" fill="#EA2D2E" transform="translate(0,0)"/>
<path d="" fill="#EA2D2E" transform="translate(0,0)"/>
<path d="" fill="#EA2E2F" transform="translate(0,0)"/>
<path d="" fill="#EA2D2E" transform="translate(0,0)"/>
<path d="" fill="#EA2D2E" transform="translate(0,0)"/>
<path d="" fill="#EA2D2E" transform="translate(0,0)"/>
<path d="" fill="#EA2D2F" transform="translate(0,0)"/>
<path d="" fill="#EA2D2E" transform="translate(0,0)"/>
<path d="" fill="#EA2D2E" transform="translate(0,0)"/>
<path d="" fill="#EA2D2E" transform="translate(0,0)"/>
<path d="" fill="#EA2D2E" transform="translate(0,0)"/>
<path d="" fill="#EA2D2E" transform="translate(0,0)"/>
</svg>
