<?xml version="1.0" encoding="utf-8" ?>
<svg baseProfile="tiny" height="128" version="1.2" width="128" xmlns="http://www.w3.org/2000/svg" xmlns:ev="http://www.w3.org/2001/xml-events" xmlns:xlink="http://www.w3.org/1999/xlink"><defs /><rect fill="white" height="128" width="128" x="0" y="0" /><rect fill="#006dcb" height="20" width="20" x="0" y="100" /><rect fill="#0071be" height="20" width="20" x="20" y="100" /><rect fill="#0071c3" height="20" width="20" x="40" y="100" /><rect fill="#0072be" height="20" width="20" x="60" y="100" /><rect fill="#0072bf" height="20" width="20" x="80" y="100" /><rect fill="#0073bb" height="20" width="20" x="100" y="100" /><rect fill="#0073bc" height="20" width="20" x="120" y="100" /><rect fill="#0073bd" height="20" width="20" x="140" y="100" /><rect fill="#0073be" height="20" width="20" x="160" y="100" /><rect fill="#0073bf" height="20" width="20" x="180" y="100" /><rect fill="#0073c0" height="20" width="20" x="200" y="100" /><rect fill="#0074bb" height="20" width="20" x="220" y="100" /><rect fill="#0074bc" height="20" width="20" x="240" y="100" /><rect fill="#0074bd" height="20" width="20" x="260" y="100" /><rect fill="#0074be" height="20" width="20" x="280" y="100" /><rect fill="#0074bf" height="20" width="20" x="300" y="100" /><rect fill="#0074c0" height="20" width="20" x="320" y="100" /><rect fill="#0075b9" height="20" width="20" x="340" y="100" /><rect fill="#0075bb" height="20" width="20" x="360" y="100" /><rect fill="#0075bc" height="20" width="20" x="380" y="100" /><rect fill="#0075bd" height="20" width="20" x="400" y="100" /><rect fill="#0075be" height="20" width="20" x="420" y="100" /><rect fill="#0075bf" height="20" width="20" x="440" y="100" /><rect fill="#0076bc" height="20" width="20" x="460" y="100" /><rect fill="#0076bd" height="20" width="20" x="480" y="100" /><rect fill="#0076be" height="20" width="20" x="500" y="100" /><rect fill="#0076c1" height="20" width="20" x="520" y="100" /><rect fill="#0077bc" height="20" width="20" x="540" y="100" /><rect fill="#0078be" height="20" width="20" x="560" y="100" /><rect fill="#0079b8" height="20" width="20" x="580" y="100" /><rect fill="#007ac0" height="20" width="20" x="600" y="100" /><rect fill="#007bcc" height="20" width="20" x="620" y="100" /><rect fill="#007ebe" height="20" width="20" x="640" y="100" /><rect fill="#009fff" height="20" width="20" x="660" y="100" /><rect fill="#0273bb" height="20" width="20" x="680" y="100" /><rect fill="#0b71b7" height="20" width="20" x="700" y="100" /><rect fill="#116fb3" height="20" width="20" x="720" y="100" /><rect fill="#126eb3" height="20" width="20" x="740" y="100" /><rect fill="#416096" height="20" width="20" x="760" y="100" /><rect fill="#5f5783" height="20" width="20" x="780" y="100" /><rect fill="#884a69" height="20" width="20" x="800" y="100" /><rect fill="#cf353e" height="20" width="20" x="820" y="100" /><rect fill="#dc3137" height="20" width="20" x="840" y="100" /><rect fill="#e42e31" height="20" width="20" x="860" y="100" /><rect fill="#e42f2f" height="20" width="20" x="880" y="100" /><rect fill="#e82d2f" height="20" width="20" x="900" y="100" /><rect fill="#e82e2e" height="20" width="20" x="920" y="100" /><rect fill="#e9292f" height="20" width="20" x="940" y="100" /><rect fill="#e92c2d" height="20" width="20" x="960" y="100" /><rect fill="#e92c2e" height="20" width="20" x="980" y="100" /><rect fill="#e92c2f" height="20" width="20" x="1000" y="100" /><rect fill="#e92d2d" height="20" width="20" x="1020" y="100" /><rect fill="#e92d2e" height="20" width="20" x="1040" y="100" /><rect fill="#e92d2f" height="20" width="20" x="1060" y="100" /><rect fill="#e92e2f" height="20" width="20" x="1080" y="100" /><rect fill="#e92f2d" height="20" width="20" x="1100" y="100" /><rect fill="#e92f2f" height="20" width="20" x="1120" y="100" /><rect fill="#ea2b2e" height="20" width="20" x="1140" y="100" /><rect fill="#ea2c2c" height="20" width="20" x="1160" y="100" /><rect fill="#ea2c2d" height="20" width="20" x="1180" y="100" /><rect fill="#ea2c2e" height="20" width="20" x="1200" y="100" /><rect fill="#ea2c2f" height="20" width="20" x="1220" y="100" /><rect fill="#ea2d2d" height="20" width="20" x="1240" y="100" /><rect fill="#ea2d2e" height="20" width="20" x="1260" y="100" /><rect fill="#ea2d2f" height="20" width="20" x="1280" y="100" /><rect fill="#ea2d30" height="20" width="20" x="1300" y="100" /><rect fill="#ea2d31" height="20" width="20" x="1320" y="100" /><rect fill="#ea2d32" height="20" width="20" x="1340" y="100" /><rect fill="#ea2e2d" height="20" width="20" x="1360" y="100" /><rect fill="#ea2e2e" height="20" width="20" x="1380" y="100" /><rect fill="#ea2e2f" height="20" width="20" x="1400" y="100" /><rect fill="#ea2e31" height="20" width="20" x="1420" y="100" /><rect fill="#ea2f2f" height="20" width="20" x="1440" y="100" /><rect fill="#eb2b2e" height="20" width="20" x="1460" y="100" /><rect fill="#eb2c2e" height="20" width="20" x="1480" y="100" /><rect fill="#eb2c2f" height="20" width="20" x="1500" y="100" /><rect fill="#eb2d2d" height="20" width="20" x="1520" y="100" /><rect fill="#eb2d2e" height="20" width="20" x="1540" y="100" /><rect fill="#eb2d2f" height="20" width="20" x="1560" y="100" /><rect fill="#eb2e2c" height="20" width="20" x="1580" y="100" /><rect fill="#eb2e2d" height="20" width="20" x="1600" y="100" /><rect fill="#eb2e2e" height="20" width="20" x="1620" y="100" /><rect fill="#eb2e2f" height="20" width="20" x="1640" y="100" /><rect fill="#eb2e30" height="20" width="20" x="1660" y="100" /><rect fill="#ec2d2b" height="20" width="20" x="1680" y="100" /><rect fill="#ec2d2c" height="20" width="20" x="1700" y="100" /><rect fill="#ec2d2e" height="20" width="20" x="1720" y="100" /><rect fill="#ec2e2d" height="20" width="20" x="1740" y="100" /><rect fill="#ec2e2f" height="20" width="20" x="1760" y="100" /><rect fill="#ec3034" height="20" width="20" x="1780" y="100" /><rect fill="#ed2d2f" height="20" width="20" x="1800" y="100" /><rect fill="#f2332d" height="20" width="20" x="1820" y="100" /></svg>